<?xml version="1.0" encoding="UTF-8"?>
<svg width="81px" height="18px" viewBox="0 0 81 18" version="1.1" xmlns="http://www.w3.org/2000/svg" xmlns:xlink="http://www.w3.org/1999/xlink">
    <!-- Generator: Sketch 47 (45396) - http://www.bohemiancoding.com/sketch -->
    <title>Group</title>
    <desc>Created with Sketch.</desc>
    <defs></defs>
    <g id="Page-1" stroke="none" stroke-width="1" fill="none" fill-rule="evenodd" fill-opacity="0.54">
        <g id="Group" fill-rule="nonzero" fill="#000000">
            <path d="M2.1,17 L0,17 L0,0.7 L9.5,0.7 L9.5,2.7 L2.1,2.7 L2.1,8 L8.8,8 L8.8,10 L2.1,10 L2.1,17 L2.1,17 Z M13.4,3 C13.1,3.3 12.8,3.4 12.4,3.4 C12,3.4 11.6,3.3 11.4,3 C11.1,2.7 11,2.4 11,2 C11,1.6 11.1,1.2 11.4,1 C11.7,0.7 12,0.6 12.4,0.6 C12.8,0.6 13.2,0.7 13.4,1 C13.7,1.3 13.8,1.6 13.8,2 C13.8,2.4 13.7,2.7 13.4,3 Z M11.3,5.8 L13.4,5.8 L13.4,17 L11.3,17 L11.3,5.8 Z M18,17 L15.9,17 L15.9,5.8 L17.9,5.8 L17.9,7.6 L18,7.6 C18.2,7 18.6,6.5 19.3,6.1 C20,5.7 20.6,5.5 21.2,5.5 C21.8,5.5 22.3,5.6 22.8,5.8 L22,7.8 C21.7,7.7 21.4,7.6 20.9,7.6 C20.1,7.6 19.5,7.9 18.9,8.5 C18.3,9.1 18,9.9 18,10.9 L18,17 L18,17 Z M28.5,17.4 C26.8,17.4 25.5,16.8 24.4,15.7 C23.4,14.6 22.8,13.1 22.8,11.4 C22.8,9.8 23.3,8.4 24.3,7.2 C25.3,6 26.6,5.4 28.2,5.4 C29.8,5.4 31.2,5.9 32.2,7 C33.2,8.1 33.7,9.5 33.7,11.3 L33.7,11.7 L24.9,11.7 C25,12.8 25.3,13.7 26,14.4 C26.7,15.1 27.5,15.4 28.4,15.4 C29.9,15.4 30.9,14.8 31.4,13.5 L33.3,14.3 C32.9,15.2 32.3,15.9 31.5,16.5 C30.7,17.1 29.7,17.4 28.5,17.4 L28.5,17.4 Z M31.5,10.1 C31.5,9.5 31.2,8.9 30.6,8.3 C30.1,7.7 29.3,7.4 28.2,7.4 C27.4,7.4 26.8,7.6 26.2,8.1 C25.6,8.6 25.2,9.2 25,10.1 L31.5,10.1 L31.5,10.1 Z M41.2,17.4 C40.4,17.4 39.6,17.2 38.9,16.9 C38.2,16.5 37.7,16.1 37.4,15.5 L37.3,15.5 L37.3,17 L35.3,17 L35.3,0.7 L37.4,0.7 L37.4,5.9 L37.3,7.5 L37.4,7.5 C37.7,6.9 38.2,6.5 38.9,6.1 C39.6,5.7 40.3,5.5 41.2,5.5 C42.6,5.5 43.9,6.1 44.9,7.2 C45.9,8.3 46.5,9.8 46.5,11.4 C46.5,13 46,14.5 44.9,15.6 C43.9,16.8 42.7,17.4 41.2,17.4 L41.2,17.4 Z M40.9,15.5 C41.9,15.5 42.7,15.1 43.4,14.4 C44.1,13.7 44.4,12.7 44.4,11.5 C44.4,10.3 44.1,9.3 43.4,8.6 C42.7,7.9 41.9,7.5 40.9,7.5 C39.9,7.5 39.1,7.9 38.4,8.6 C37.7,9.3 37.4,10.3 37.4,11.5 C37.4,12.7 37.7,13.7 38.4,14.4 C39.1,15.1 39.9,15.5 40.9,15.5 Z M51.8,17.4 C50.6,17.4 49.6,17.1 48.8,16.4 C48,15.7 47.6,14.8 47.6,13.7 C47.6,12.5 48.1,11.5 49,10.8 C49.9,10.1 51.1,9.8 52.5,9.8 C53.7,9.8 54.7,10 55.5,10.5 L55.5,10.2 C55.5,9.4 55.2,8.7 54.7,8.2 C54.1,7.7 53.5,7.5 52.6,7.5 C52,7.5 51.4,7.6 51,7.9 C50.5,8.2 50.2,8.6 50,9.1 L48.1,8.3 C48.4,7.6 48.9,7 49.6,6.4 C50.4,5.8 51.4,5.5 52.6,5.5 C54,5.5 55.2,5.9 56.1,6.8 C57,7.6 57.5,8.8 57.5,10.3 L57.5,17 L55.5,17 L55.5,15.4 L55.4,15.4 C54.6,16.7 53.4,17.4 51.8,17.4 L51.8,17.4 Z M52.2,15.5 C53.1,15.5 53.8,15.2 54.5,14.5 C55.2,13.9 55.6,13.1 55.6,12.2 C55,11.7 54.1,11.5 52.9,11.5 C51.9,11.5 51.1,11.7 50.6,12.2 C50.1,12.6 49.8,13.2 49.8,13.8 C49.8,14.3 50,14.8 50.5,15.1 C51,15.3 51.5,15.4 52.2,15.5 L52.2,15.5 Z M63.8,17.4 C62.6,17.4 61.5,17.1 60.7,16.5 C59.9,15.9 59.3,15.1 58.9,14.2 L60.8,13.4 C61.4,14.8 62.4,15.5 63.8,15.5 C64.4,15.5 65,15.4 65.4,15.1 C65.8,14.8 66,14.4 66,14 C66,13.3 65.5,12.8 64.5,12.5 L62.3,12 C61.6,11.8 60.9,11.5 60.3,11 C59.7,10.5 59.3,9.8 59.3,8.9 C59.3,7.9 59.7,7.1 60.6,6.5 C61.5,5.9 62.5,5.6 63.7,5.6 C64.7,5.6 65.6,5.8 66.3,6.3 C67.1,6.7 67.6,7.4 68,8.2 L66.2,9 C65.8,8 64.9,7.5 63.7,7.5 C63.1,7.5 62.6,7.6 62.1,7.9 C61.7,8.2 61.5,8.5 61.5,8.9 C61.5,9.5 62,10 63,10.2 L65.2,10.7 C66.2,10.9 67,11.4 67.5,12 C68,12.6 68.3,13.3 68.3,14 C68.3,15 67.9,15.8 67.1,16.5 C66.1,17 65.1,17.4 63.8,17.4 L63.8,17.4 Z M75,17.4 C73.3,17.4 72,16.8 70.9,15.7 C69.8,14.6 69.3,13.1 69.3,11.4 C69.3,9.8 69.8,8.4 70.8,7.2 C71.8,6 73.1,5.4 74.7,5.4 C76.3,5.4 77.7,5.9 78.7,7 C79.7,8.1 80.2,9.5 80.2,11.3 L80.2,11.7 L71.4,11.7 C71.5,12.8 71.8,13.7 72.5,14.4 C73.2,15.1 74,15.4 74.9,15.4 C76.4,15.4 77.4,14.8 77.9,13.5 L79.8,14.3 C79.4,15.2 78.8,15.9 78,16.5 C77.3,17.1 76.2,17.4 75,17.4 L75,17.4 Z M78,10.1 C78,9.5 77.7,8.9 77.1,8.3 C76.6,7.7 75.8,7.4 74.7,7.4 C73.9,7.4 73.3,7.6 72.7,8.1 C72.1,8.6 71.7,9.2 71.5,10.1 L78,10.1 L78,10.1 Z" id="Shape"></path>
        </g>
    </g>
</svg>